<svg width="455" height="106" viewBox="0 0 455 106" fill="none" xmlns="http://www.w3.org/2000/svg">
<path d="M25.76 3.5H22.3444C15.7482 3.5 12.4502 3.5 9.93078 4.84415C7.71462 6.02644 5.91285 7.91302 4.78372 10.2335C3.92559 11.9969 3.6411 14.1247 3.54678 17.4048M25.76 3.5H56.6767M25.76 3.5V17.4048M87.5933 3.5H90.6555C97.2517 3.5 100.55 3.5 103.069 4.84415C105.285 6.02644 107.087 7.91302 108.216 10.2335C109.074 11.9969 109.359 14.1247 109.453 17.4048M87.5933 3.5H56.6767M87.5933 3.5V17.4048M56.6767 3.5V17.4048M25.76 79.3142V53.6565M76.64 79.3142H57.56L57.1183 53.6565M57.1183 53.6565L56.6767 27.9989H25.76V53.6565M57.1183 53.6565H76.64M25.76 53.6565H43.78M3.54678 17.4048C3.5 19.0316 3.5 20.9418 3.5 23.2315V27.9989V52.9944V77.9899V82.4262C3.5 89.3328 3.5 92.7865 4.78372 95.4243C5.91285 97.7446 7.71462 99.6315 9.93078 100.814C12.4502 102.158 15.7482 102.158 22.3444 102.158H25.76H56.6767H87.5933H90.6555C97.2517 102.158 100.55 102.158 103.069 100.814C105.285 99.6315 107.087 97.7446 108.216 95.4243C109.5 92.7865 109.5 89.3328 109.5 82.4262V77.9899V52.9944V27.9989V23.2315C109.5 20.9418 109.5 19.0316 109.453 17.4048M3.54678 17.4048H25.76M109.453 17.4048H87.5933M25.76 17.4048H56.6767M87.5933 17.4048H56.6767" stroke="#36B04B" stroke-width="7" stroke-linecap="round" stroke-linejoin="round"/>
<path d="M159.788 16.1172V86.5H147.654V16.1172H159.788ZM188.501 46.9097V56.5293H156.694V46.9097H188.501ZM192.514 16.1172V25.7852H156.694V16.1172H192.514Z" fill="#00AC47"/>
<path d="M232.104 16.1172V86.5H220.067V16.1172H232.104ZM254.195 16.1172V25.7852H198.169V16.1172H254.195ZM285.423 76.0103V51.0669C285.423 49.1978 285.084 47.5864 284.408 46.2329C283.731 44.8794 282.7 43.832 281.314 43.0908C279.96 42.3496 278.252 41.979 276.19 41.979C274.289 41.979 272.645 42.3013 271.259 42.9458C269.874 43.5903 268.794 44.4604 268.021 45.5562C267.247 46.6519 266.86 47.8926 266.86 49.2783H255.259C255.259 47.2158 255.758 45.2178 256.757 43.2842C257.756 41.3506 259.207 39.6265 261.108 38.1118C263.009 36.5972 265.281 35.4048 267.924 34.5347C270.566 33.6646 273.531 33.2295 276.818 33.2295C280.75 33.2295 284.23 33.8901 287.26 35.2114C290.321 36.5327 292.722 38.5308 294.462 41.2056C296.235 43.8481 297.121 47.1675 297.121 51.1636V74.415C297.121 76.7998 297.282 78.9429 297.604 80.8442C297.959 82.7134 298.458 84.3408 299.103 85.7266V86.5H287.163C286.615 85.2432 286.18 83.6479 285.858 81.7144C285.568 79.7485 285.423 77.8472 285.423 76.0103ZM287.115 54.6924L287.211 61.895H278.849C276.689 61.895 274.788 62.1045 273.145 62.5234C271.501 62.9102 270.131 63.4902 269.036 64.2637C267.94 65.0371 267.118 65.9717 266.57 67.0674C266.022 68.1631 265.749 69.4038 265.749 70.7896C265.749 72.1753 266.071 73.4482 266.715 74.6084C267.36 75.7363 268.294 76.6226 269.519 77.2671C270.776 77.9116 272.291 78.2339 274.063 78.2339C276.448 78.2339 278.526 77.7505 280.299 76.7837C282.104 75.7847 283.521 74.5762 284.553 73.1582C285.584 71.708 286.132 70.3384 286.196 69.0493L289.967 74.2217C289.58 75.543 288.919 76.9609 287.985 78.4756C287.05 79.9902 285.826 81.4404 284.311 82.8262C282.829 84.1797 281.04 85.2915 278.945 86.1616C276.883 87.0317 274.498 87.4668 271.791 87.4668C268.375 87.4668 265.33 86.79 262.655 85.4365C259.98 84.0508 257.885 82.1978 256.371 79.8774C254.856 77.5249 254.099 74.8662 254.099 71.9014C254.099 69.1299 254.614 66.6807 255.646 64.5537C256.709 62.3945 258.256 60.5898 260.286 59.1396C262.349 57.6895 264.862 56.5938 267.827 55.8525C270.792 55.0791 274.176 54.6924 277.979 54.6924H287.115ZM309.351 12.25H321.001V75.3335L319.889 86.5H309.351V12.25ZM355.129 59.8647V60.8799C355.129 64.7471 354.694 68.3081 353.824 71.563C352.986 74.7856 351.697 77.5894 349.957 79.9741C348.249 82.3589 346.122 84.2119 343.576 85.5332C341.062 86.8223 338.146 87.4668 334.826 87.4668C331.571 87.4668 328.735 86.8545 326.318 85.6299C323.901 84.4053 321.871 82.665 320.228 80.4092C318.616 78.1533 317.311 75.4624 316.312 72.3364C315.313 69.2104 314.604 65.7622 314.185 61.9917V58.7529C314.604 54.9502 315.313 51.502 316.312 48.4082C317.311 45.2822 318.616 42.5913 320.228 40.3354C321.871 38.0474 323.885 36.291 326.27 35.0664C328.687 33.8418 331.507 33.2295 334.729 33.2295C338.081 33.2295 341.03 33.874 343.576 35.1631C346.154 36.4521 348.297 38.2891 350.005 40.6738C351.713 43.0264 352.986 45.8301 353.824 49.085C354.694 52.3398 355.129 55.9331 355.129 59.8647ZM343.479 60.8799V59.8647C343.479 57.5122 343.286 55.3047 342.899 53.2422C342.512 51.1475 341.868 49.3105 340.965 47.7314C340.095 46.1523 338.903 44.9116 337.388 44.0093C335.906 43.0747 334.053 42.6074 331.829 42.6074C329.767 42.6074 327.994 42.9619 326.512 43.6709C325.029 44.3799 323.789 45.3467 322.79 46.5713C321.791 47.7959 321.001 49.2139 320.421 50.8252C319.873 52.4365 319.502 54.1768 319.309 56.0459V64.7954C319.599 67.2124 320.211 69.436 321.146 71.4663C322.113 73.4644 323.466 75.0757 325.207 76.3003C326.947 77.4927 329.187 78.0889 331.926 78.0889C334.085 78.0889 335.906 77.6538 337.388 76.7837C338.871 75.9136 340.047 74.7051 340.917 73.1582C341.819 71.5791 342.464 69.7422 342.851 67.6475C343.27 65.5527 343.479 63.2969 343.479 60.8799ZM377.462 12.25V86.5H365.764V12.25H377.462ZM413.282 87.4668C409.415 87.4668 405.918 86.8384 402.792 85.5815C399.698 84.2925 397.056 82.5039 394.864 80.2158C392.705 77.9277 391.045 75.2368 389.885 72.1431C388.725 69.0493 388.145 65.7139 388.145 62.1367V60.2031C388.145 56.1104 388.741 52.4043 389.934 49.085C391.126 45.7656 392.786 42.9297 394.913 40.5771C397.04 38.1924 399.553 36.3716 402.454 35.1147C405.354 33.8579 408.496 33.2295 411.88 33.2295C415.618 33.2295 418.889 33.8579 421.693 35.1147C424.497 36.3716 426.817 38.144 428.654 40.4321C430.523 42.688 431.909 45.3789 432.811 48.5049C433.746 51.6309 434.213 55.0791 434.213 58.8496V63.8286H393.801V55.4658H422.708V54.5474C422.644 52.4526 422.225 50.4868 421.451 48.6499C420.71 46.813 419.566 45.3306 418.019 44.2026C416.472 43.0747 414.41 42.5107 411.832 42.5107C409.898 42.5107 408.174 42.9297 406.659 43.7676C405.177 44.5732 403.936 45.7495 402.937 47.2964C401.938 48.8433 401.165 50.7124 400.617 52.9038C400.101 55.063 399.843 57.4961 399.843 60.2031V62.1367C399.843 64.4248 400.149 66.5518 400.762 68.5176C401.406 70.4512 402.341 72.1431 403.565 73.5933C404.79 75.0435 406.272 76.1875 408.013 77.0254C409.753 77.8311 411.735 78.2339 413.958 78.2339C416.762 78.2339 419.26 77.6699 421.451 76.542C423.643 75.4141 425.544 73.8188 427.155 71.7563L433.294 77.7021C432.167 79.3457 430.7 80.9248 428.896 82.4395C427.091 83.9219 424.883 85.1304 422.273 86.0649C419.695 86.9995 416.698 87.4668 413.282 87.4668Z" fill="#1E1E1E"/>
</svg>
